HIERARCHY
ROOT Hips
{
  OFFSET 3.13124 94.3669 -3.18751
  CHANNELS  6 Xposition Yposition Zposition Zrotation Xrotation Yrotation
  JOINT LeftUpLeg
  {
    OFFSET 8.64259 1.95398 -2.38835
    CHANNELS 3 Zrotation Xrotation Yrotation
    JOINT LeftLeg
    {
      OFFSET 43.7702 0 0
      CHANNELS 3 Zrotation Xrotation Yrotation
      JOINT LeftFoot
      {
        OFFSET 40.6238 0 0
        CHANNELS 3 Zrotation Xrotation Yrotation
        JOINT LeftToeBase
        {
          OFFSET 12.7242 0 0
          CHANNELS 3 Zrotation Xrotation Yrotation
          End Site
          {
            OFFSET 0 0 0
          }
        }
      }
    }
  }
  JOINT RightUpLeg
  {
    OFFSET -8.2249 1.95398 -2.59336
    CHANNELS 3 Zrotation Xrotation Yrotation
    JOINT RightLeg
    {
      OFFSET 43.5653 0 0
      CHANNELS 3 Zrotation Xrotation Yrotation
      JOINT RightFoot
      {
        OFFSET 40.6238 0 0
        CHANNELS 3 Zrotation Xrotation Yrotation
        JOINT RightToeBase
        {
          OFFSET 12.7242 0 0
          CHANNELS 3 Zrotation Xrotation Yrotation
          End Site
          {
            OFFSET 0 0 0
          }
        }
      }
    }
  }
  JOINT Spine
  {
    OFFSET 0.165834 0.87714 6.61349
    CHANNELS 3 Zrotation Xrotation Yrotation
    JOINT Spine1
    {
      OFFSET 7.38962 1.71661e-005 0
      CHANNELS 3 Zrotation Xrotation Yrotation
      JOINT Spine2
      {
        OFFSET 11.9445 1.14441e-005 0
        CHANNELS 3 Zrotation Xrotation Yrotation
        JOINT Spine3
        {
          OFFSET 14.7254 4.19617e-005 0
          CHANNELS 3 Zrotation Xrotation Yrotation
          JOINT Spine4
          {
            OFFSET 10.9679 0 0
            CHANNELS 3 Zrotation Xrotation Yrotation
            JOINT RightShoulder
            {
              OFFSET 2.46616 -1.6653 3.69651
              CHANNELS 3 Zrotation Xrotation Yrotation
              JOINT RightArm
              {
                OFFSET 13.0012 0 0
                CHANNELS 3 Zrotation Xrotation Yrotation
                JOINT RightForeArm
                {
                  OFFSET 28.7848 1.52588e-005 0
                  CHANNELS 3 Zrotation Xrotation Yrotation
                  JOINT RightHand
                  {
                    OFFSET 26.5688 1.52588e-005 0
                    CHANNELS 3 Zrotation Xrotation Yrotation
                    End Site
                    {
                      OFFSET 0 0 0
                    }
                  }
                }
              }
            }
            JOINT LeftShoulder
            {
              OFFSET 2.38034 -1.29275 -3.75231
              CHANNELS 3 Zrotation Xrotation Yrotation
              JOINT LeftArm
              {
                OFFSET 16.3182 6.10352e-005 0
                CHANNELS 3 Zrotation Xrotation Yrotation
                JOINT LeftForeArm
                {
                  OFFSET 27.0901 0 0
                  CHANNELS 3 Zrotation Xrotation Yrotation
                  JOINT LeftHand
                  {
                    OFFSET 24.5451 1.52588e-005 0
                    CHANNELS 3 Zrotation Xrotation Yrotation
                    End Site
                    {
                      OFFSET 0 0 0
                    }
                  }
                }
              }
            }
            JOINT Neck
            {
              OFFSET 5.0226 -0.0266342 0
              CHANNELS 3 Zrotation Xrotation Yrotation
              JOINT Head
              {
                OFFSET 6.69363 2.86102e-005 0
                CHANNELS 3 Zrotation Xrotation Yrotation
                End Site
                {
                  OFFSET 0 0 0
                }
              }
            }
          }
        }
      }
    }
  }
}
MOTION
Frames:	17
Frame Time:	0.0333333
1.83368 97.4226 -16.6051 146.23 -89.9914 146.352 -170.985 2.93022 90.3384 -9.69995 8.6048 3.3929 63.7882 0.559707 0.257828 28.7808 5.2385e-006 6.25729e-006 179.433 2.04289 89.18 -7.91093 -0.445223 -0.0310454 62.8951 -1.21093 -0.611104 28.7808 1.426e-005 2.76483e-005 0.00992132 6.34022 -90.1251 14.1935 -2.36511e-005 4.46817e-006 2.52256 -2.18023e-005 -4.96895e-006 -20.0126 -3.01918e-005 -0.00369262 5.22279e-005 -2.90945e-005 -0.00368775 100.882 -18.867 -85.3132 2.49034 40.5186 -28.4239 0.610303 0.357891 -5.65932 -5.37983 -0.320013 -0.0162417 -79.1709 -21.9281 93.9367 5.52512 -41.3455 -21.7145 3.06104 43.2991 -1.98228 -1.07726 -0.0606832 -1.99945 1.73981 -0.000321611 0.00512028 -7.40828 5.95299e-005 -0.00697008 
1.82695 97.3876 -16.5896 171.641 -89.8858 171.738 -170.973 2.78352 90.3379 -9.66412 8.55555 3.35731 63.9374 0.584743 0.276814 28.7808 5.2385e-006 6.25729e-006 179.416 2.22333 89.1295 -8.55469 -0.454328 -0.0324992 63.297 -1.16404 -0.588344 28.7808 1.426e-005 2.76483e-005 0.0106348 6.34079 -90.1341 14.1924 0.000515813 -0.000525184 2.52144 0.000509356 -0.000573978 -20.0137 0.000582893 -0.00369262 -0.0010707 0.000584286 -0.00368775 100.768 -18.8561 -85.368 2.38175 40.5099 -28.2825 0.641139 0.357864 -5.70403 -5.37983 -0.320013 -0.0162417 -79.3059 -21.8582 93.8328 5.6089 -41.3321 -21.5033 2.98496 43.0546 -1.9208 -0.948059 -0.0606793 -2.10195 1.52921 -0.00719923 0.0768997 -7.35762 -0.00123631 -0.109183 
1.81656 97.3987 -16.5859 -171.438 -89.8918 -171.337 -170.961 2.80593 90.3529 -9.68736 8.47315 3.32594 63.8786 0.550864 0.255992 28.7808 5.2385e-006 6.25729e-006 179.414 0.801979 89.1264 -5.66088 -0.283609 -0.0198608 62.427 -0.588783 -0.240443 28.7808 1.426e-005 2.76483e-005 0.0184424 6.35474 -90.1371 14.1645 0.0144212 -0.00857778 2.49351 0.0140315 -0.00921567 -20.0416 0.0163291 -0.0038071 -0.028987 0.0163337 -0.00380348 100.875 -18.8702 -85.3547 2.35686 40.5056 -28.2478 0.645964 0.357847 -5.72969 -5.37983 -0.320013 -0.0162417 -79.2222 -21.7661 93.7907 5.58249 -41.3063 -21.4433 3.00695 42.8278 -1.89857 -1.17529 -0.0606677 -2.3837 1.47981 -0.0348231 0.003887 -7.17717 -0.0317481 -0.0770133 
1.82479 97.3685 -16.5839 -176.987 -89.883 -176.935 -171.001 2.83268 90.2869 -9.802 8.50602 3.36347 64.0058 0.676425 0.328488 28.7808 5.2385e-006 6.25729e-006 179.407 2.67349 89.1396 -9.47177 -0.510705 -0.0370362 63.6733 -1.2734 -0.658114 28.7808 1.426e-005 2.76483e-005 0.0171442 6.35017 -90.1176 14.1736 0.0143818 -0.0114288 2.50265 0.0138643 -0.0120656 -20.0325 0.0171576 -0.0065722 -0.0198661 0.0171525 -0.00658645 100.83 -18.8579 -85.4442 2.28852 40.4856 -28.1556 0.681213 0.357853 -5.72076 -5.37983 -0.320013 -0.0162417 -79.2733 -21.7434 93.7 5.59171 -41.2989 -21.3376 3.00385 42.7264 -1.89785 -1.09428 -0.0606645 -2.45452 1.18415 -0.0175189 0.0452854 -6.99213 -0.0251224 -0.119319 
1.81534 97.3831 -16.5693 -174.127 -89.8166 -174.055 -170.955 2.79868 90.3254 -9.87495 8.52677 3.3654 63.9912 0.617921 0.293894 28.7808 5.2385e-006 6.25729e-006 179.423 2.48325 89.1352 -9.24725 -0.519676 -0.0366562 63.5624 -1.27741 -0.659367 28.7808 1.426e-005 2.76483e-005 0.022011 6.35805 -90.1168 14.1578 0.0214492 -0.0300853 2.48688 0.0201044 -0.0310128 -20.0483 0.0294913 -0.0222521 -0.0356344 0.0294962 -0.0222534 100.837 -18.8324 -85.4401 2.2774 40.4397 -28.1386 0.721292 0.357819 -5.77449 -5.37983 -0.320013 -0.0162417 -79.2952 -21.8024 93.6426 5.61587 -41.3031 -21.3345 2.9978 42.7093 -1.90015 -1.13641 -0.0606668 -2.40404 1.00143 -0.0310266 0.0731156 -6.84314 -0.0291035 -0.107927 
1.81417 97.3329 -16.57 -169.845 -89.8159 -169.862 -170.99 2.87291 90.2372 -10.0637 8.45099 3.34925 64.1406 0.666196 0.321017 28.7808 5.2385e-006 6.25729e-006 179.413 3.78015 89.0791 -11.8695 -0.662654 -0.0380557 64.3134 -1.83825 -0.98861 28.7808 1.426e-005 2.76483e-005 0.0233556 6.35703 -90.0727 14.1597 0.0305152 -0.0327142 2.48871 0.0290514 -0.034034 -20.0464 0.0389395 -0.0220384 -0.0338019 0.0389515 -0.022036 100.816 -18.7599 -85.4969 2.32792 40.4092 -28.1259 0.717213 0.357822 -5.75614 -5.37983 -0.320013 -0.0162417 -79.3349 -21.8044 93.554 5.62887 -41.2603 -21.2103 3.01638 42.4651 -1.95433 -1.18658 -0.0606604 -2.54311 0.877556 -0.0113468 0.171917 -6.82419 -0.0359215 -0.185638 
1.81552 97.3629 -16.548 174.888 -89.7865 174.916 -170.965 2.80053 90.2858 -9.98423 8.57739 3.39017 64.0808 0.622907 0.296895 28.7808 5.2385e-006 6.25729e-006 179.415 2.99187 89.105 -10.3838 -0.57385 -0.0398628 63.9829 -1.47655 -0.779564 28.7808 1.426e-005 2.76483e-005 0.0262567 6.35818 -90.0987 14.1534 0.0316403 -0.0392436 2.48249 0.0299121 -0.0401138 -20.0527 0.0416524 -0.0283407 -0.0400317 0.0416577 -0.0283441 100.828 -18.865 -85.4635 2.28216 40.4067 -28.1383 0.758111 0.357633 -5.80485 -5.37983 -0.320013 -0.0162417 -79.3632 -21.7369 93.482 5.55719 -41.2184 -21.1824 2.96017 41.7012 -1.94082 -1.18285 -0.0606462 -2.82923 0.741049 -0.029763 0.056111 -6.69849 -0.037159 -0.0292952 
1.80397 97.3561 -16.5574 156.39 -89.8397 156.383 -171.014 2.85237 90.2471 -9.94131 8.61088 3.40411 64.0517 0.566462 0.265384 28.7808 5.2385e-006 6.25729e-006 179.399 3.08052 89.078 -10.4268 -0.539747 -0.0410246 64.0015 -1.48946 -0.786056 28.7808 1.426e-005 2.76483e-005 0.027426 6.36074 -90.1131 14.167 0.0352648 -0.0443884 2.49603 0.0333938 -0.0457573 -20.0391 0.0422817 -0.0331899 -0.0264781 0.0422761 -0.0331974 100.817 -18.7272 -85.5006 2.31022 40.3147 -28.0801 0.792969 0.357494 -5.74245 -5.37983 -0.320013 -0.0162417 -79.4069 -21.8268 93.3898 5.59155 -41.2314 -21.153 3.04661 42.6297 -1.92858 -1.34633 -0.0606563 -2.62967 0.690336 0.0014236 0.231253 -6.69283 -0.0271241 -0.143686 
1.80529 97.3494 -16.5287 150.228 -89.7867 150.189 -171.025 2.81471 90.2142 -9.98664 8.70103 3.45552 64.0786 0.578793 0.271394 28.7808 5.2385e-006 6.25729e-006 179.393 3.12398 89.0474 -10.6475 -0.498731 -0.041225 64.1457 -1.49142 -0.789877 28.7808 1.426e-005 2.76483e-005 0.0298738 6.36429 -90.0959 14.1493 0.0395365 -0.0436149 2.47837 0.0375711 -0.0477008 -20.0568 0.048665 -0.0301215 -0.0441436 0.0486652 -0.0301225 100.828 -18.7772 -85.4655 2.33586 40.335 -28.0826 0.775331 0.357299 -5.74045 -5.37983 -0.320013 -0.0162417 -79.4251 -21.8453 93.3543 5.543 -41.2284 -21.2243 2.98451 42.4364 -1.8869 -1.18142 -0.0606555 -2.64437 0.71785 -0.0235014 0.17544 -6.6584 -0.0483167 -0.0732029 
1.78814 97.3429 -16.5198 134.372 -89.7827 134.318 -171.026 2.87566 90.2038 -10.0437 8.65056 3.40932 64.1051 0.675454 0.326507 28.7808 5.2385e-006 6.25729e-006 179.398 3.43968 89.0547 -11.2281 -0.499997 -0.0408583 64.247 -1.68092 -0.898252 28.7808 1.426e-005 2.76483e-005 0.0319023 6.36728 -90.0929 14.153 0.0423695 -0.0467921 2.48205 0.0403112 -0.0476625 -20.0531 0.0542645 -0.0317721 -0.0404544 0.0542694 -0.0317709 100.82 -18.7998 -85.4819 2.30138 40.3257 -28.0018 0.789403 0.357092 -5.72865 -5.37983 -0.320013 -0.0162417 -79.4501 -21.8278 93.2999 5.46382 -41.2139 -21.2541 2.99267 42.589 -1.84547 -1.18476 -0.0606534 -2.68837 0.667187 -0.0321043 0.153235 -6.55962 -0.055849 -0.0642909 
1.78135 97.3505 -16.4942 132.88 -89.7465 132.807 -171.013 2.80672 90.2051 -9.97077 8.70096 3.40317 64.0715 0.630834 0.300739 28.7808 5.2385e-006 6.25729e-006 179.388 3.23562 89.0334 -10.9101 -0.448955 -0.0400969 64.2258 -1.54806 -0.822743 28.7808 1.426e-005 2.76483e-005 0.0320414 6.36904 -90.0953 14.1354 0.0430255 -0.0520521 2.4645 0.0408835 -0.0455512 -20.0707 0.053757 -0.0355085 -0.0580073 0.0537518 -0.0355066 100.828 -18.8505 -85.4587 2.29978 40.3061 -28.0147 0.812661 0.35687 -5.71781 -5.37983 -0.320013 -0.0162417 -79.432 -21.8057 93.3379 5.38657 -41.2047 -21.3076 2.97614 42.6011 -1.7926 -1.16346 -0.0606501 -2.75294 0.736382 -0.0196397 0.111941 -6.53387 -0.0369194 -0.0385898 
1.75441 97.334 -16.4784 124.833 -89.7642 124.797 -170.989 2.81255 90.2487 -9.91404 8.73394 3.40613 64.1246 0.689938 0.33646 28.7808 5.2385e-006 6.25729e-006 179.409 3.37783 89.0904 -11.1415 -0.440829 -0.0391146 64.2747 -1.63649 -0.872403 28.7808 1.426e-005 2.76483e-005 0.0352579 6.36863 -90.1076 14.1365 0.0424112 -0.0571661 2.46558 0.0401862 -0.0511879 -20.0696 0.0544896 -0.0397951 -0.0569262 0.0544802 -0.0397937 100.832 -18.9297 -85.4496 2.28437 40.2793 -28.0209 0.84222 0.356625 -5.71888 -5.37983 -0.320013 -0.0162417 -79.4352 -21.7523 93.3222 5.40645 -41.1647 -21.21 2.94728 42.4181 -1.83165 -1.18373 -0.0606581 -2.59168 0.730586 -0.0176726 0.0394006 -6.48182 -0.0248492 0.0204786 
1.74008 97.3442 -16.4563 129.559 -89.7379 129.516 -170.963 2.77442 90.2622 -9.93431 8.73518 3.39717 64.1406 0.615818 0.294103 28.7808 5.2385e-006 6.25729e-006 179.412 3.31912 89.09 -11.135 -0.429698 -0.0380839 64.3117 -1.63011 -0.869729 28.7808 1.426e-005 2.76483e-005 0.0324307 6.37328 -90.1016 14.1279 0.0412095 -0.0599051 2.45692 0.0388465 -0.0586798 -20.0782 0.0551544 -0.0430964 -0.0655834 0.0551449 -0.0430959 100.791 -18.9952 -85.5383 2.20277 40.2744 -27.946 0.880882 0.356365 -5.72609 -5.37983 -0.320013 -0.0162417 -79.446 -21.819 93.3095 5.58065 -41.1708 -21.0303 2.82889 42.0807 -1.78858 -1.01946 -0.0606594 -2.56432 0.700415 0.0103823 0.0653318 -6.4443 -0.00207552 -0.0115037 
1.72211 97.3488 -16.4333 128.48 -89.7646 128.476 -170.929 2.7065 90.3247 -9.77246 8.76452 3.37943 64.1361 0.548976 0.259003 28.7808 5.2385e-006 6.25729e-006 179.413 3.00503 89.1283 -10.4965 -0.4905 -0.0371783 64.1463 -1.56314 -0.82803 28.7808 1.426e-005 2.76483e-005 0.0338095 6.37796 -90.1343 14.13 0.0379331 -0.0579353 2.45907 0.0353494 -0.0596095 -20.0761 0.053621 -0.043845 -0.0634384 0.0536179 -0.0438455 100.743 -19.0441 -85.6551 2.18715 40.3157 -27.9079 0.860775 0.356102 -5.71911 -5.37983 -0.320013 -0.0162417 -79.4231 -21.8169 93.3605 5.63624 -41.1262 -20.874 2.70541 41.7316 -1.79755 -0.757542 -0.0608578 -2.23874 0.654053 0.0238167 0.081871 -6.36585 0.0080593 0.00654687 
1.70473 97.3254 -16.3748 117.15 -89.6651 117.065 -170.944 2.73616 90.2542 -9.91675 8.84945 3.38308 64.1925 0.752221 0.372305 28.7808 5.2385e-006 6.25729e-006 179.4 3.24485 89.0654 -11.0972 -0.452772 -0.0365699 64.4764 -1.55785 -0.830249 28.7808 1.426e-005 2.76483e-005 0.0194467 6.37761 -90.1005 14.1185 0.0160116 -0.0468639 2.44758 0.0139378 -0.0475346 -20.0876 0.0293519 -0.039656 -0.0749106 0.029357 -0.0396584 100.792 -19.1757 -85.5249 2.2163 40.2848 -28.1139 0.893375 0.355829 -5.71226 -5.37983 -0.320013 -0.0162417 -79.3709 -21.7964 93.4739 5.57181 -41.0826 -20.8942 2.67438 42.5495 -1.6065 -0.598047 -0.063489 -2.62703 0.827412 0.0364265 0.100481 -6.57564 0.0193414 0.0160337 
1.71596 97.3541 -16.3789 111.613 -89.8778 111.614 -170.939 2.7148 90.3257 -9.66024 8.69753 3.35683 64.1112 0.588758 0.281569 28.7808 5.2385e-006 6.25729e-006 179.413 3.10512 89.1343 -10.5377 -0.571147 -0.0364331 64.0955 -1.62521 -0.862236 28.7808 1.426e-005 2.76483e-005 0.0441469 6.36321 -90.1432 14.1474 0.0554408 -0.0688852 2.47647 0.0523592 -0.0712655 -20.0587 0.0735758 -0.041657 -0.046057 0.0735848 -0.0416614 100.75 -19.1141 -85.6374 2.24162 40.2862 -28.0079 0.8774 0.355553 -5.69605 -5.37983 -0.320013 -0.0162417 -79.3863 -21.8322 93.4402 5.64674 -41.0943 -20.7522 2.6167 41.7276 -1.64828 -0.724295 -0.0626096 -2.44607 0.628764 0.0260122 0.160683 -6.33851 0.000123141 -0.0292059 
1.69201 97.3427 -16.3417 130.163 -89.7577 130.127 -170.873 2.69854 90.3272 -9.90215 8.84319 3.3829 64.2069 0.558687 0.261956 28.7808 5.2385e-006 6.25729e-006 179.437 3.53521 89.1305 -11.7111 -0.434109 -0.0369387 64.518 -1.72341 -0.924979 28.7808 1.426e-005 2.76483e-005 0.0377532 6.37275 -90.0954 14.1284 0.0494494 -0.0730377 2.45741 0.0461913 -0.0751376 -20.0777 0.0691051 -0.0466125 -0.0650998 0.0690988 -0.0466195 100.745 -19.1562 -85.6491 2.10097 40.2255 -27.8737 0.970816 0.355258 -5.70112 -5.37983 -0.320013 -0.0162417 -79.4114 -21.8745 93.3836 5.71465 -41.1152 -20.6624 2.52242 41.4785 -1.57173 -0.586838 -0.0598995 -2.40354 0.479084 0.0112342 0.201531 -6.19477 -0.0133838 -0.143672 
